<svg version="1.0" xmlns="http://www.w3.org/2000/svg" width="600.000000pt" height="400.000000pt" viewBox="0 0 600.000000 400.000000" preserveAspectRatio="xMidYMid meet" style="width: 359.777px; height: auto;"> <g transform="translate(0.000000,400.000000) scale(0.100000,-0.100000)" fill="#000000" stroke="none" class="">  <path d="M3395 3029 c-60 -21 -110 -37 -110 -38 0 0 -7 -2 -15 -5 -8 -2 -46 -15 -85 -27 -38 -13 -73 -24 -77 -25 -5 -1 -10 -3 -13 -4 -3 -1 -8 -3 -12 -5 -5 -1 -15 -4 -23 -8 -8 -3 -37 -13 -65 -22 -27 -10 -57 -20 -65 -23 -8 -3 -17 -6 -20 -7 -3 -1 -50 -16 -105 -34 -55 -18 -107 -34 -115 -36 -8 -2 -15 -4 -15 -5 0 -1 -7 -3 -15 -6 -8 -2 -49 -15 -90 -30 -41 -14 -79 -27 -85 -28 -5 -2 -17 -5 -25 -8 -48 -18 -177 -61 -185 -62 -5 -1 -14 -4 -20 -8 -5 -3 -36 -13 -67 -22 -31 -9 -93 -30 -138 -47 -69 -26 -85 -37 -108 -72 l-27 -41 -3 -543 c-2 -356 1 -557 8 -582 16 -61 70 -132 124 -166 l49 -30 896 -3 c654 -2 907 0 936 8 54 16 101 53 136 108 l29 46 0 173 0 174 35 30 35 31 0 185 0 185 -35 35 -35 35 0 137 c0 135 -1 138 -29 183 -38 60 -78 80 -167 86 l-72 4 -7 52 c-5 28 -9 56 -9 61 -1 6 -5 24 -8 40 -4 17 -10 48 -13 70 -10 74 -16 100 -27 135 -27 87 -103 143 -198 145 -39 1 -87 -10 -165 -36z m247 -39 c53 -35 70 -70 88 -180 14 -87 15 -96 30 -174 13 -66 3 -105 -27 -107 -10 -1 -106 0 -213 1 -451 5 -892 5 -896 -1 -2 -4 -19 -3 -38 1 -19 4 -106 6 -193 3 -106 -3 -168 -1 -188 7 l-30 11 23 18 c13 9 56 28 95 41 65 20 102 33 162 56 28 10 26 10 60 18 17 4 37 11 45 15 8 4 49 18 90 31 41 12 113 36 160 52 47 16 92 31 100 33 8 2 29 9 45 15 17 6 37 13 45 15 8 2 44 14 80 28 36 13 108 37 160 52 52 15 100 30 105 34 6 3 46 18 90 33 109 36 150 36 207 -2z m-669 -507 c1025 -4 960 1 1013 -68 26 -34 27 -41 25 -140 0 -58 -6 -113 -12 -123 -10 -16 -32 -17 -278 -15 -348 3 -399 -10 -475 -121 -21 -32 -26 -50 -26 -103 0 -35 6 -78 14 -96 25 -57 98 -123 144 -130 12 -2 25 -6 28 -10 11 -10 44 -8 44 2 0 6 -8 9 -17 9 -53 -3 -161 79 -183 138 -13 34 -14 124 -1 156 15 40 60 87 106 111 38 20 55 21 355 23 173 1 329 -3 346 -8 56 -15 63 -38 65 -210 l1 -153 -36 -32 c-31 -29 -43 -33 -93 -34 -32 -1 -46 -4 -30 -6 43 -7 49 -31 45 -187 -3 -136 -4 -145 -30 -183 -35 -52 -87 -93 -135 -104 -48 -11 -1646 -12 -1693 0 -77 18 -125 55 -163 126 -22 40 -22 45 -22 586 0 529 1 548 20 569 14 15 25 19 40 13 11 -4 438 -9 948 -10z" class=""></path> <path d="M2895 2787 c-352 -117 -656 -219 -675 -225 -27 -9 149 -11 748 -9 l782 2 -5 25 c-2 14 -16 93 -30 175 -25 153 -36 180 -86 217 -55 41 -58 41 -734 -185z m658 121 c27 -14 44 -48 56 -108 6 -30 18 -89 26 -130 17 -87 18 -101 5 -80 -5 8 -12 40 -16 70 -3 30 -9 60 -13 65 -4 6 -8 24 -10 40 -5 56 -21 102 -42 121 -39 35 -135 26 -249 -23 -16 -7 -27 -10 -57 -14 -5 -1 -17 -6 -27 -11 -10 -6 -62 -23 -115 -39 -88 -25 -162 -50 -201 -66 -8 -3 -24 -8 -35 -10 -11 -1 -29 -7 -40 -12 -23 -11 -161 -53 -190 -58 -11 -2 -44 -12 -72 -22 -29 -11 -53 -15 -53 -10 0 4 33 18 73 29 98 29 476 150 672 215 88 29 169 55 180 58 24 6 83 -2 108 -15z m-1043 -293 c0 -5 -56 -21 -105 -29 -16 -3 -5 3 25 13 57 20 80 24 80 16z"></path> <path d="M1996 2458 c-3 -13 -6 -261 -6 -553 0 -496 2 -533 19 -571 21 -46 72 -90 128 -110 51 -18 1629 -20 1700 -2 59 14 127 78 142 133 6 22 11 95 11 163 l0 122 -273 0 c-305 0 -344 6 -419 63 -158 121 -138 335 42 429 44 22 53 23 348 26 l304 3 -4 109 c-3 123 -18 156 -79 177 -25 9 -269 12 -956 12 -603 1 -924 4 -928 11 -10 17 -22 11 -29 -12z m86 -488 l3 -435 28 -53 c38 -71 97 -127 163 -152 53 -19 74 -20 811 -20 l757 0 33 23 c46 31 66 79 73 177 l7 85 1 -81 c2 -67 -2 -88 -23 -130 -46 -92 14 -86 -852 -86 -417 0 -765 3 -773 5 -46 13 -109 51 -141 84 -42 44 -91 125 -94 156 -1 12 -3 210 -4 439 -1 407 -1 417 -21 423 -11 3 -25 15 -30 25 -9 18 -7 17 24 -3 l34 -22 4 -435z m1843 420 c3 -6 -1 -7 -9 -4 -18 7 -21 14 -7 14 6 0 13 -4 16 -10z m-766 -485 c-24 -123 34 -227 157 -282 33 -15 81 -19 334 -24 l295 -6 -300 1 c-347 2 -355 3 -437 95 -64 71 -81 154 -52 254 11 35 12 12 3 -38z" class=""></path> <path d="M3381 2079 c-76 -30 -121 -96 -121 -177 0 -65 46 -136 109 -169 43 -23 49 -23 365 -23 177 0 326 4 332 8 27 18 34 56 34 191 0 198 35 181 -369 180 -179 0 -337 -5 -350 -10z m-63 -94 c-6 -14 -13 -23 -15 -21 -5 5 15 46 22 46 3 0 -1 -11 -7 -25z m225 5 c61 -49 53 -141 -16 -173 -43 -21 -60 -21 -97 -2 -52 27 -74 94 -46 144 29 51 112 68 159 31z m-216 -163 c11 -17 37 -42 59 -55 39 -22 43 -22 361 -20 177 2 318 -1 314 -5 -4 -4 -154 -6 -333 -5 l-326 3 -39 31 c-47 38 -72 87 -71 139 l0 40 8 -48 c5 -26 17 -62 27 -80z"></path> <path d="M3435 1965 c-14 -13 -25 -36 -25 -50 0 -32 41 -75 73 -75 13 0 34 11 47 25 67 72 -26 170 -95 100z m85 -15 c11 -11 20 -30 19 -42 0 -15 -2 -18 -6 -8 -9 25 -35 50 -51 50 -9 0 -24 -8 -35 -17 -19 -17 -20 -17 -9 4 20 37 53 42 82 13z"></path> <path d="M3508 1673 c28 -2 76 -2 105 0 28 2 5 3 -53 3 -58 0 -81 -1 -52 -3z"></path> <path d="M3728 1673 c23 -2 59 -2 80 0 20 2 1 4 -43 4 -44 0 -61 -2 -37 -4z"></path> <path d="M3863 1673 c9 -2 25 -2 35 0 9 3 1 5 -18 5 -19 0 -27 -2 -17 -5z"></path> </g> </svg>